<?xml version="1.0" encoding="utf-8"?>
<svg viewBox="0 0 500 480" fill="none" xmlns="http://www.w3.org/2000/svg">
  <defs>
    <linearGradient id="paint0_linear_1028_1032" x1="156.747" y1="216.683" x2="-149.033" y2="282.186" gradientUnits="userSpaceOnUse">
      <stop stop-color="#F0F2F9"/>
      <stop offset="1" stop-color="white" stop-opacity="0"/>
    </linearGradient>
    <linearGradient id="paint1_linear_1028_1032" x1="374.3" y1="234.975" x2="361.897" y2="369.833" gradientUnits="userSpaceOnUse">
      <stop stop-color="white" stop-opacity="0.48"/>
      <stop offset="1" stop-color="white" stop-opacity="0"/>
    </linearGradient>
    <linearGradient id="paint2_linear_1028_1032" x1="378.318" y1="233" x2="378.318" y2="237.617" gradientUnits="userSpaceOnUse">
      <stop stop-color="white" stop-opacity="0.55"/>
      <stop offset="1" stop-color="white" stop-opacity="0.62"/>
    </linearGradient>
    <linearGradient id="paint3_linear_1028_1032" x1="432.22" y1="95.6425" x2="442.533" y2="207.784" gradientUnits="userSpaceOnUse">
      <stop stop-color="#5F7597" stop-opacity="0.48"/>
      <stop offset="1" stop-color="white" stop-opacity="0"/>
    </linearGradient>
    <linearGradient id="paint4_linear_1028_1032" x1="418.483" y1="175.882" x2="429.732" y2="208.225" gradientUnits="userSpaceOnUse">
      <stop stop-color="white" stop-opacity="0.48"/>
      <stop offset="1" stop-color="white" stop-opacity="0"/>
    </linearGradient>
    <clipPath id="clip0_1028_1032">
      <rect width="12" height="12" fill="white" transform="translate(386.13 156.742) rotate(-12.5713)"/>
    </clipPath>
    <linearGradient id="paint5_linear_1028_1032" x1="396" y1="42" x2="359.25" y2="42" gradientUnits="userSpaceOnUse">
      <stop stop-color="white" stop-opacity="0.28"/>
      <stop offset="1" stop-color="white" stop-opacity="0"/>
    </linearGradient>
  </defs>
  <rect x="330" y="310" width="170" height="170" rx="2" fill="white" transform="matrix(1, 0, 0, 1, 0, -3.552713678800501e-15)"/>
  <rect x="362" y="365.831" width="80.7651" height="80.7651" rx="2" transform="matrix(0.970662790586898, -0.24044489383236164, 0.24044489383236164, 0.970662790586898, -77.34212462178226, 97.77351203789686)" fill="#EB5757"/>
  <rect width="300" height="480" rx="2" fill="white" transform="matrix(1, 0, 0, 1, 0, -3.552713678800501e-15)"/>
  <rect x="35" y="35" width="230" height="134" rx="2" fill="#DAE2F0" fill-opacity="0.66" transform="matrix(1, 0, 0, 1, 0, -3.552713678800501e-15)"/>
  <rect opacity="0.53" x="35" y="194" width="230" height="27" rx="2" fill="#DAE2F0" transform="matrix(1, 0, 0, 1, 0, -3.552713678800501e-15)"/>
  <rect x="35" y="246" width="137" height="199" fill="url(#paint0_linear_1028_1032)" transform="matrix(1, 0, 0, 1, 0, -3.552713678800501e-15)"/>
  <rect opacity="0.57" x="187" y="246" width="78" height="64" rx="2" fill="#DAE2F0" transform="matrix(1, 0, 0, 1, 0, -3.552713678800501e-15)"/>
  <rect opacity="0.6" x="187" y="322" width="78" height="55" rx="2" fill="#DAE2F0" transform="matrix(1, 0, 0, 1, 0, -3.552713678800501e-15)"/>
  <rect opacity="0.5" x="187" y="389" width="78" height="56" rx="2" fill="#DAE2F0" transform="matrix(1, 0, 0, 1, 0, -3.552713678800501e-15)"/>
  <path d="M377.795 371.295C358.482 349.772 331.574 292.451 378.448 235.356" stroke="url(#paint1_linear_1028_1032)" stroke-linecap="round" stroke-linejoin="round" stroke-dasharray="2 2" transform="matrix(1, 0, 0, 1, 0, -3.552713678800501e-15)"/>
  <path d="M375.753 233.513L380.883 233V237.617" stroke="url(#paint2_linear_1028_1032)" stroke-linecap="round" stroke-linejoin="round" stroke-dasharray="2 2" transform="matrix(1, 0, 0, 1, 0, -3.552713678800501e-15)"/>
  <rect x="330" width="170" height="280" rx="2" fill="white" transform="matrix(1, 0, 0, 1, 0, -3.552713678800501e-15)"/>
  <rect x="384" y="213" width="69" height="19.5283" rx="9.76415" fill="#36A269" transform="matrix(1, 0, 0, 1, 0, -3.552713678800501e-15)"/>
  <path d="M429.313 209C445.373 191.102 467.749 143.437 428.77 95.9598" stroke="url(#paint3_linear_1028_1032)" stroke-linecap="round" stroke-linejoin="round" stroke-dasharray="2 2" transform="matrix(1, 0, 0, 1, 0, -3.552713678800501e-15)"/>
  <path d="M431.011 94.4266L426.746 94V97.8392" stroke="#9CAECA" stroke-linecap="round" stroke-linejoin="round" stroke-dasharray="2 2" transform="matrix(1, 0, 0, 1, 0, -3.552713678800501e-15)"/>
  <path d="M425.919 209.551C429.35 203.094 432.466 187.388 417.488 176.228" stroke="url(#paint4_linear_1028_1032)" stroke-width="0.7" stroke-linecap="round" stroke-linejoin="round" stroke-dasharray="2 2" transform="matrix(1, 0, 0, 1, 0, -3.552713678800501e-15)"/>
  <rect x="348.1" y="72.1" width="75.8" height="18.8" rx="1.9" fill="#DAE2F0" stroke="#DAE2F0" stroke-width="0.2" transform="matrix(1, 0, 0, 1, 0, -3.552713678800501e-15)"/>
  <circle cx="359.5" cy="81.5" r="6.5" fill="#EB5757" transform="matrix(1, 0, 0, 1, 0, -3.552713678800501e-15)"/>
  <rect x="373" y="148.4" width="34" height="34" rx="1" transform="matrix(0.9760259112197122, -0.21765436046110026, 0.21765436046110026, 0.9760259112197122, -23.357570648923115, 84.74283108065887)" fill="#EB5757"/>
  <circle cx="393.293" cy="161.293" r="10" transform="matrix(0.9760259112197122, -0.21765436046110026, 0.21765436046110026, 0.9760259112197122, -25.677283321330833, 89.46878891349249)" fill="white"/>
  <g clip-path="url(#clip0_1028_1032)" transform="matrix(1, 0, 0, 1, 0, -3.552713678800501e-15)"/>
  <rect x="398.1" y="32.1" width="80.8" height="19.8" rx="1.9" fill="#DAE2F0" stroke="#DAE2F0" stroke-width="0.2" transform="matrix(1, 0, 0, 1, 0, -3.552713678800501e-15)"/>
  <rect x="462" y="35" width="14" height="14" rx="1" fill="#EB5757" transform="matrix(1, 0, 0, 1, 0, -3.552713678800501e-15)"/>
  <circle opacity="0.5" cx="398" cy="42" r="1.75" fill="#282C4D" stroke="white" stroke-width="0.5" transform="matrix(1, 0, 0, 1, 0, -3.552713678800501e-15)"/>
  <line x1="347" y1="41.75" x2="396" y2="41.75" stroke="url(#paint5_linear_1028_1032)" stroke-width="0.5" transform="matrix(1, 0, 0, 1, 0, -3.552713678800501e-15)"/>
</svg>