<?xml version="1.0" encoding="utf-8"?>
<svg viewBox="0 0 500 480" fill="none" xmlns="http://www.w3.org/2000/svg">
  <defs>
    <linearGradient id="paint0_linear_50_445" x1="374.3" y1="234.975" x2="361.897" y2="369.833" gradientUnits="userSpaceOnUse">
      <stop stop-color="white" stop-opacity="0.48"/>
      <stop offset="1" stop-color="white" stop-opacity="0"/>
    </linearGradient>
    <linearGradient id="paint1_linear_50_445" x1="378.318" y1="233" x2="378.318" y2="237.617" gradientUnits="userSpaceOnUse">
      <stop stop-color="white" stop-opacity="0.55"/>
      <stop offset="1" stop-color="white" stop-opacity="0.62"/>
    </linearGradient>
    <linearGradient id="paint2_linear_50_445" x1="432.22" y1="95.6423" x2="442.533" y2="207.784" gradientUnits="userSpaceOnUse">
      <stop stop-color="white" stop-opacity="0.48"/>
      <stop offset="1" stop-color="white" stop-opacity="0"/>
    </linearGradient>
    <linearGradient id="paint3_linear_50_445" x1="428.878" y1="94" x2="428.878" y2="97.8392" gradientUnits="userSpaceOnUse">
      <stop stop-color="white" stop-opacity="0.55"/>
      <stop offset="1" stop-color="white" stop-opacity="0.62"/>
    </linearGradient>
    <linearGradient id="paint4_linear_50_445" x1="418.483" y1="175.882" x2="429.732" y2="208.225" gradientUnits="userSpaceOnUse">
      <stop stop-color="white" stop-opacity="0.48"/>
      <stop offset="1" stop-color="white" stop-opacity="0"/>
    </linearGradient>
    <linearGradient id="paint5_linear_50_445" x1="396" y1="42" x2="359.25" y2="42" gradientUnits="userSpaceOnUse">
      <stop stop-color="white" stop-opacity="0.28"/>
      <stop offset="1" stop-color="white" stop-opacity="0"/>
    </linearGradient>
  </defs>
  <rect x="330" y="310" width="170" height="170" rx="2" fill="#1D2430" transform="matrix(1, 0, 0, 1, 3.552713678800501e-15, 0)"/>
  <rect x="362" y="365.831" width="80.7651" height="80.7651" rx="2" transform="matrix(0.9706627905868981, -0.24044489383236167, 0.24044489383236167, 0.9706627905868981, -77.34212462178226, 97.77351203789686)" fill="#EB5757"/>
  <rect width="300" height="480" rx="2" fill="#1D2430" transform="matrix(1, 0, 0, 1, 3.552713678800501e-15, 0)"/>
  <rect x="35" y="35" width="230" height="134" rx="2" fill="white" fill-opacity="0.17" transform="matrix(1, 0, 0, 1, 3.552713678800501e-15, 0)"/>
  <rect opacity="0.1" x="35" y="194" width="230" height="27" rx="2" fill="white" transform="matrix(1, 0, 0, 1, 3.552713678800501e-15, 0)"/>
  <rect opacity="0.1" x="35" y="246" width="137" height="199" rx="2" fill="white" transform="matrix(1, 0, 0, 1, 3.552713678800501e-15, 0)"/>
  <rect opacity="0.08" x="187" y="246" width="78" height="64" rx="2" fill="white" transform="matrix(1, 0, 0, 1, 3.552713678800501e-15, 0)"/>
  <rect opacity="0.2" x="187" y="322" width="78" height="55" rx="2" fill="white" transform="matrix(1, 0, 0, 1, 3.552713678800501e-15, 0)"/>
  <rect opacity="0.2" x="187" y="389" width="78" height="56" rx="2" fill="white" fill-opacity="0.65" transform="matrix(1, 0, 0, 1, 3.552713678800501e-15, 0)"/>
  <path d="M377.795 371.295C358.482 349.772 331.574 292.451 378.448 235.357" stroke="url(#paint0_linear_50_445)" stroke-linecap="round" stroke-linejoin="round" stroke-dasharray="2 2" transform="matrix(1, 0, 0, 1, 3.552713678800501e-15, 0)"/>
  <path d="M375.753 233.513L380.883 233V237.617" stroke="url(#paint1_linear_50_445)" stroke-linecap="round" stroke-linejoin="round" stroke-dasharray="2 2" transform="matrix(1, 0, 0, 1, 3.552713678800501e-15, 0)"/>
  <rect x="330" width="170" height="280" rx="2" fill="#1D2430" transform="matrix(1, 0, 0, 1, 3.552713678800501e-15, 0)"/>
  <rect x="384" y="213" width="69" height="19.5283" rx="9.76415" fill="#36A269" transform="matrix(1, 0, 0, 1, 3.552713678800501e-15, 0)"/>
  <path d="M429.313 209C445.373 191.102 467.749 143.437 428.77 95.9595" stroke="url(#paint2_linear_50_445)" stroke-linecap="round" stroke-linejoin="round" stroke-dasharray="2 2" transform="matrix(1, 0, 0, 1, 3.552713678800501e-15, 0)"/>
  <path d="M431.011 94.4266L426.746 94V97.8392" stroke="url(#paint3_linear_50_445)" stroke-linecap="round" stroke-linejoin="round" stroke-dasharray="2 2" transform="matrix(1, 0, 0, 1, 3.552713678800501e-15, 0)"/>
  <path d="M425.919 209.552C429.35 203.094 432.466 187.389 417.488 176.228" stroke="url(#paint4_linear_50_445)" stroke-width="0.7" stroke-linecap="round" stroke-linejoin="round" stroke-dasharray="2 2" transform="matrix(1, 0, 0, 1, 3.552713678800501e-15, 0)"/>
  <rect x="348" y="72" width="76" height="19" fill="white" fill-opacity="0.15" transform="matrix(1, 0, 0, 1, 3.552713678800501e-15, 0)"/>
  <rect x="348.1" y="72.1" width="18.8" height="18.8" rx="0.9" stroke="white" stroke-opacity="0.19" stroke-width="0.2" transform="matrix(1, 0, 0, 1, 3.552713678800501e-15, 0)"/>
  <circle cx="359.5" cy="81.5" r="6.5" fill="#EB5757" transform="matrix(1, 0, 0, 1, 3.552713678800501e-15, 0)"/>
  <rect x="373" y="148.4" width="34" height="34" rx="1" transform="matrix(0.9760259112197123, -0.2176543604611003, 0.2176543604611003, 0.9760259112197123, -23.357570648923115, 84.74283108065889)" fill="#EB5757"/>
  <circle cx="393.293" cy="161.293" r="10" transform="matrix(0.9760259112197123, -0.2176543604611003, 0.2176543604611003, 0.9760259112197123, -25.677283321330833, 89.4687889134925)" fill="white"/>
  <g opacity="0.08" transform="matrix(1, 0, 0, 1, 3.552713678800501e-15, 0)">
    <rect x="398" y="32" width="81" height="20" rx="1" fill="white"/>
    <rect x="398.1" y="32.1" width="80.8" height="19.8" rx="0.9" stroke="white" stroke-opacity="0.19" stroke-width="0.2"/>
  </g>
  <rect x="462" y="35" width="14" height="14" rx="1" fill="#EB5757" transform="matrix(1, 0, 0, 1, 3.552713678800501e-15, 0)"/>
  <circle opacity="0.5" cx="398" cy="42" r="1.75" fill="#282C4D" stroke="white" stroke-width="0.5" transform="matrix(1, 0, 0, 1, 3.552713678800501e-15, 0)"/>
  <line x1="347" y1="41.75" x2="396" y2="41.75" stroke="url(#paint5_linear_50_445)" stroke-width="0.5" transform="matrix(1, 0, 0, 1, 3.552713678800501e-15, 0)"/>
</svg>